Coordinates
version=1
nRows=22
nColumns=24
inDegrees=yes

Units are S.I. units (second, meters, Newtons, ...)
Angles are in degrees.

endheader
time	pelvis_tilt	pelvis_list	pelvis_rotation	pelvis_tx	pelvis_ty	pelvis_tz	hip_flexion_r	hip_adduction_r	hip_rotation_r	knee_angle_r	ankle_angle_r	subtalar_angle_r	mtp_angle_r	hip_flexion_l	hip_adduction_l	hip_rotation_l	knee_angle_l	ankle_angle_l	subtalar_angle_l	mtp_angle_l	lumbar_extension	lumbar_bending	lumbar_rotation
      4.31000000	     75.93558062	     -1.16598353	     -2.56744227	      0.57564650	      0.97224031	     -0.29748822	     -9.83311397	    -11.66839070	    -10.27661188	    -61.52729995	    -27.01748692	      0.00000000	      0.00000000	    -13.12666946	     -3.75747335	      5.38982215	    -41.48853664	    -36.63370665	      0.00000000	      0.00000000	      0.00000000	      0.00000000	      0.00000000
      4.32000000	     75.90762198	     -1.16615819	     -2.57460379	      0.57568558	      0.97223227	     -0.29747698	     -9.80108605	    -11.68627806	    -10.22578931	    -61.50264113	    -27.02477097	      0.00000000	      0.00000000	    -13.08948411	     -3.75991815	      5.40547733	    -41.45879700	    -36.61282623	      0.00000000	      0.00000000	      0.00000000	      0.00000000	      0.00000000
      4.33000000	     75.87515812	     -1.16732972	     -2.58133630	      0.57570648	      0.97222629	     -0.29748783	     -9.76623057	    -11.70140404	    -10.17098060	    -61.48850907	    -27.04222484	      0.00000000	      0.00000000	    -13.04885360	     -3.76167337	      5.41888101	    -41.43019050	    -36.59401180	      0.00000000	      0.00000000	      0.00000000	      0.00000000	      0.00000000
      4.34000000	     75.83955485	     -1.16792791	     -2.58813598	      0.57571208	      0.97221515	     -0.29751241	     -9.73055486	    -11.71172668	    -10.11061213	    -61.48708584	    -27.06689954	      0.00000000	      0.00000000	    -13.00510620	     -3.76369226	      5.43012753	    -41.40464957	    -36.57548317	      0.00000000	      0.00000000	      0.00000000	      0.00000000	      0.00000000
      4.35000000	     75.80368781	     -1.16812970	     -2.59440898	      0.57572863	      0.97219609	     -0.29752591	     -9.69270844	    -11.71931855	    -10.04302397	    -61.49613870	    -27.09359323	      0.00000000	      0.00000000	    -12.96072890	     -3.76735935	      5.43972144	    -41.38463448	    -36.55619936	      0.00000000	      0.00000000	      0.00000000	      0.00000000	      0.00000000
      4.36000000	     75.77004539	     -1.16959394	     -2.59959888	      0.57575828	      0.97217186	     -0.29751970	     -9.65129687	    -11.72828811	     -9.96713411	    -61.51131877	    -27.11550263	      0.00000000	      0.00000000	    -12.91855825	     -3.77330924	      5.44815862	    -41.37206505	    -36.53606965	      0.00000000	      0.00000000	      0.00000000	      0.00000000	      0.00000000
      4.37000000	     75.73947749	     -1.17374772	     -2.60431943	      0.57578076	      0.97214567	     -0.29751099	     -9.60764505	    -11.74144486	     -9.88299839	    -61.52878100	    -27.12602702	      0.00000000	      0.00000000	    -12.88001513	     -3.78052307	      5.45562279	    -41.36764067	    -36.51589206	      0.00000000	      0.00000000	      0.00000000	      0.00000000	      0.00000000
      4.38000000	     75.71145483	     -1.18030204	     -2.61008064	      0.57578999	      0.97211567	     -0.29752278	     -9.56544261	    -11.75871305	     -9.79181403	    -61.54619254	    -27.12108549	      0.00000000	      0.00000000	    -12.84500601	     -3.78669437	      5.46195425	    -41.37106477	    -36.49708203	      0.00000000	      0.00000000	      0.00000000	      0.00000000	      0.00000000
      4.39000000	     75.68484552	     -1.18742909	     -2.61796319	      0.57579756	      0.97207401	     -0.29755723	     -9.52846108	    -11.77827186	     -9.69531184	    -61.56248900	    -27.10075409	      0.00000000	      0.00000000	    -12.81310061	     -3.78958762	      5.46684387	    -41.38178602	    -36.48123434	      0.00000000	      0.00000000	      0.00000000	      0.00000000	      0.00000000
      4.40000000	     75.65896890	     -1.19312310	     -2.62790619	      0.57581069	      0.97201886	     -0.29759249	     -9.49829260	    -11.79853045	     -9.59531369	    -61.57723749	    -27.06931333	      0.00000000	      0.00000000	    -12.78441058	     -3.78808957	      5.47002714	    -41.39951046	    -36.46959657	      0.00000000	      0.00000000	      0.00000000	      0.00000000	      0.00000000
      4.41000000	     75.63431291	     -1.19626398	     -2.63945522	      0.57582737	      0.97196241	     -0.29760714	     -9.47366141	    -11.81895421	     -9.49380627	    -61.59020542	    -27.03370857	      0.00000000	      0.00000000	    -12.75939947	     -3.78227515	      5.47133967	    -41.42413788	    -36.46258118	      0.00000000	      0.00000000	      0.00000000	      0.00000000	      0.00000000
      4.42000000	     75.61184252	     -1.19668654	     -2.65287603	      0.57584611	      0.97191501	     -0.29760143	     -9.45173127	    -11.83975098	     -9.39282622	    -61.60132949	    -27.00118930	      0.00000000	      0.00000000	    -12.73823065	     -3.77294080	      5.47066861	    -41.45537306	    -36.45948015	      0.00000000	      0.00000000	      0.00000000	      0.00000000	      0.00000000
      4.43000000	     75.59171794	     -1.19476384	     -2.66909696	      0.57586699	      0.97187405	     -0.29759223	     -9.42997275	    -11.86142294	     -9.29362966	    -61.61078862	    -26.97713209	      0.00000000	      0.00000000	    -12.72030317	     -3.76113861	      5.46789184	    -41.49241826	    -36.45854153	      0.00000000	      0.00000000	      0.00000000	      0.00000000	      0.00000000
      4.44000000	     75.57301653	     -1.19118842	     -2.68839228	      0.57588581	      0.97183712	     -0.29759282	     -9.40680499	    -11.88454752	     -9.19578549	    -61.61883819	    -26.96381129	      0.00000000	      0.00000000	    -12.70429477	     -3.74771547	      5.46282787	    -41.53402091	    -36.45748303	      0.00000000	      0.00000000	      0.00000000	      0.00000000	      0.00000000
      4.45000000	     75.55438967	     -1.18692037	     -2.70925543	      0.57589782	      0.97180983	     -0.29759838	     -9.38102616	    -11.90934503	     -9.09722062	    -61.62557705	    -26.96038457	      0.00000000	      0.00000000	    -12.68873118	     -3.73281133	      5.45525581	    -41.57887664	    -36.45433812	      0.00000000	      0.00000000	      0.00000000	      0.00000000	      0.00000000
      4.46000000	     75.53449237	     -1.18279506	     -2.72905895	      0.57590652	      0.97179354	     -0.29759341	     -9.35174026	    -11.93485684	     -8.99543307	    -61.63123053	    -26.96385197	      0.00000000	      0.00000000	    -12.67231642	     -3.71579395	      5.44515289	    -41.62600858	    -36.44832372	      0.00000000	      0.00000000	      0.00000000	      0.00000000	      0.00000000
      4.47000000	     75.51172117	     -1.17902772	     -2.74606709	      0.57591897	      0.97177725	     -0.29757427	     -9.31940185	    -11.95872714	     -8.88902151	    -61.63682440	    -26.97040920	      0.00000000	      0.00000000	    -12.65362472	     -3.69606012	      5.43306778	    -41.67485891	    -36.44033918	      0.00000000	      0.00000000	      0.00000000	      0.00000000	      0.00000000
      4.48000000	     75.48413170	     -1.17547431	     -2.76048846	      0.57593273	      0.97174792	     -0.29755298	     -9.28605627	    -11.97855248	     -8.77855748	    -61.64404686	    -26.97663141	      0.00000000	      0.00000000	    -12.63117029	     -3.67420776	      5.42025307	    -41.72530191	    -36.43283201	      0.00000000	      0.00000000	      0.00000000	      0.00000000	      0.00000000
      4.49000000	     75.45070219	     -1.17239577	     -2.77362689	      0.57594484	      0.97170642	     -0.29753618	     -9.25336446	    -11.99372697	     -8.66672141	    -61.65374930	    -26.98021246	      0.00000000	      0.00000000	    -12.60431316	     -3.65247632	      5.40828049	    -41.77758681	    -36.42899865	      0.00000000	      0.00000000	      0.00000000	      0.00000000	      0.00000000
      4.50000000	     75.41257385	     -1.17066461	     -2.78661750	      0.57596668	      0.97167009	     -0.29751430	     -9.22093775	    -12.00558500	     -8.55799730	    -61.66485277	    -26.98021678	      0.00000000	      0.00000000	    -12.57382434	     -3.63371397	      5.39824565	    -41.83180475	    -36.43155076	      0.00000000	      0.00000000	      0.00000000	      0.00000000	      0.00000000
      4.51000000	     75.37203287	     -1.17106574	     -2.80012509	      0.57600835	      0.97165570	     -0.29748371	     -9.18757895	    -12.01564913	     -8.45785880	    -61.67526419	    -26.97691195	      0.00000000	      0.00000000	    -12.54153137	     -3.61962680	      5.39008987	    -41.88708844	    -36.44157782	      0.00000000	      0.00000000	      0.00000000	      0.00000000	      0.00000000
      4.52000000	     75.33085045	     -1.17369272	     -2.81438144	      0.57606741	      0.97166560	     -0.29746084	     -9.15332752	    -12.02441694	     -8.37131659	    -61.68340824	    -26.97135496	      0.00000000	      0.00000000	    -12.50964576	     -3.60991982	      5.38256990	    -41.94132373	    -36.45805485	      0.00000000	      0.00000000	      0.00000000	      0.00000000	      0.00000000
